<?xml version="1.0" encoding="UTF-8"?>
<svg id="Layer_1" data-name="Layer 1" xmlns="http://www.w3.org/2000/svg" viewBox="0 0 829.62 237.12">
  <defs>
    <style>
      .cls-1 {
        fill: #2f241e;
      }

      .cls-1, .cls-2 {
        stroke-width: 0px;
      }

      .cls-2 {
        fill: #c08a6a;
      }
    </style>
  </defs>
  <path class="cls-2" d="m182.73,130.26c.99-23.53-1.58-86.53-30.55-96.04,5.69,17.96,4.57,47.27-3.41,87.47-.75,3.78-4.42,6.24-8.2,5.49-.18-.04-.36-.08-.53-.13-3.48-.97-5.67-4.48-4.96-8.08,8.68-43.74,7.31-66.26,4.63-77.46,0-.03-.02-.07-.02-.1-1.04-4.33-5.82-6.67-9.87-4.82-30.92,14.12-65.06,67.12-75.01,103.76-2.66,9.79-4.16,20.53.57,30.67,4.01,8.61,11.36,14.32,19.71,18.32-.16-.79-.31-1.58-.45-2.4-4.55-27.31,5.41-59.05,29.6-94.36,2.18-3.18,6.53-3.99,9.7-1.81,3.18,2.18,3.99,6.52,1.81,9.7-21.43,31.27-30.94,60.01-27.52,83.12,0,.04.01.09.02.13,1.03,6.86,6.26,12.33,13.03,13.85.78.18,1.56.35,2.31.51,20.06,4.45,38.71,8.59,54.49-1.15,22.43-13.85,23.8-46.3,24.66-66.68Z"/>
  <g>
    <path class="cls-1" d="m284.57,151.95h-33.76l-5.13,15.53h-27.82l34.7-95.19h30.52l34.57,95.19h-27.95l-5.13-15.53Zm-6.62-20.25l-10.26-30.79-10.13,30.79h20.39Z"/>
    <path class="cls-1" d="m352.76,67.56v99.92h-26.46v-99.92h26.46Z"/>
    <path class="cls-1" d="m489.34,99.7c5.45,5.76,8.17,13.64,8.17,23.63v44.15h-26.47v-40.64c0-4.05-1.13-7.2-3.38-9.45-2.25-2.25-5.31-3.38-9.18-3.38s-6.93,1.13-9.18,3.38-3.38,5.4-3.38,9.45v40.64h-26.47v-40.64c0-4.05-1.1-7.2-3.31-9.45-2.21-2.25-5.25-3.38-9.11-3.38s-7.07,1.13-9.32,3.38-3.38,5.4-3.38,9.45v40.64h-26.46v-75.75h26.46v9.99c2.34-3.24,5.38-5.83,9.12-7.76,3.73-1.93,8.03-2.9,12.89-2.9,5.58,0,10.55,1.21,14.92,3.65,4.37,2.43,7.81,5.85,10.33,10.26,2.7-4.14,6.26-7.49,10.67-10.06,4.41-2.57,9.27-3.85,14.58-3.85,9.54,0,17.03,2.88,22.48,8.64Z"/>
    <path class="cls-1" d="m526.88,163.7c-5.99-3.15-10.69-7.65-14.11-13.5-3.42-5.85-5.13-12.74-5.13-20.66s1.73-14.67,5.2-20.52c3.46-5.85,8.19-10.35,14.18-13.5,5.99-3.15,12.76-4.73,20.32-4.73s14.33,1.58,20.32,4.73c5.99,3.15,10.71,7.65,14.18,13.5,3.46,5.85,5.2,12.69,5.2,20.52s-1.73,14.7-5.2,20.59c-3.47,5.9-8.21,10.42-14.25,13.57-6.03,3.15-12.83,4.73-20.39,4.73s-14.34-1.57-20.32-4.73Zm29.57-22.35c2.47-2.75,3.71-6.68,3.71-11.81s-1.24-9.05-3.71-11.75c-2.48-2.7-5.51-4.05-9.11-4.05s-6.62,1.35-9.05,4.05c-2.43,2.7-3.65,6.62-3.65,11.75s1.17,9.18,3.51,11.88c2.34,2.7,5.35,4.05,9.05,4.05s6.77-1.37,9.25-4.12Z"/>
    <path class="cls-1" d="m668.18,99.76c5.13,5.81,7.7,13.66,7.7,23.56v44.15h-26.47v-40.64c0-4.32-1.13-7.72-3.38-10.19-2.25-2.47-5.27-3.71-9.05-3.71s-7.07,1.24-9.32,3.71c-2.25,2.48-3.38,5.87-3.38,10.19v40.64h-26.46v-75.75h26.46v10.8c2.34-3.42,5.49-6.19,9.45-8.3,3.96-2.11,8.51-3.17,13.64-3.17,8.73,0,15.66,2.9,20.79,8.71Z"/>
    <path class="cls-1" d="m690.39,109.01c2.83-5.85,6.73-10.35,11.68-13.5,4.95-3.15,10.44-4.73,16.47-4.73,4.86,0,9.2,1.01,13.03,3.04,3.83,2.03,6.82,4.79,8.98,8.3v-34.57h26.6v99.92h-26.6v-10.53c-2.07,3.51-5,6.3-8.78,8.37-3.78,2.07-8.24,3.11-13.37,3.11-6.03,0-11.5-1.57-16.41-4.73-4.91-3.15-8.78-7.67-11.61-13.57-2.84-5.9-4.25-12.76-4.25-20.59s1.42-14.67,4.25-20.52Zm46.31,9.05c-2.66-2.79-5.92-4.19-9.79-4.19s-7.25,1.37-9.86,4.12c-2.61,2.75-3.92,6.59-3.92,11.54s1.3,8.71,3.92,11.54c2.61,2.83,5.89,4.25,9.86,4.25s7.13-1.39,9.79-4.19c2.65-2.79,3.98-6.66,3.98-11.61s-1.33-8.69-3.98-11.48Z"/>
  </g>
</svg>