<?xml version="1.0" encoding="UTF-8"?>
<svg id="Layer_1" data-name="Layer 1" xmlns="http://www.w3.org/2000/svg" viewBox="0 0 829.62 237.12">
  <defs>
    <style>
      .cls-1 {
        fill: #f4ede7;
        font-family: Poppins-Bold, Poppins;
        font-size: 135.03px;
        font-weight: 700;
      }

      .cls-2 {
        fill: #c08a6a;
      }
    </style>
  </defs>
  <path class="cls-2" d="M182.73,131.22c.99-23.53-1.58-86.53-30.55-96.04,5.69,17.96,4.57,47.27-3.41,87.47-.75,3.78-4.42,6.24-8.2,5.49-.18-.04-.36-.08-.53-.13-3.48-.97-5.67-4.48-4.96-8.08,8.68-43.74,7.31-66.26,4.63-77.46,0-.03-.02-.07-.02-.1-1.04-4.33-5.82-6.67-9.87-4.82-30.92,14.12-65.06,67.12-75.01,103.76-2.66,9.79-4.16,20.53.57,30.67,4.01,8.61,11.36,14.32,19.71,18.32-.16-.79-.31-1.58-.45-2.4-4.55-27.31,5.41-59.05,29.6-94.36,2.18-3.18,6.53-3.99,9.7-1.81,3.18,2.18,3.99,6.52,1.81,9.7-21.43,31.27-30.94,60.01-27.52,83.12,0,.04.01.09.02.13,1.03,6.86,6.26,12.33,13.03,13.85.78.18,1.56.35,2.31.51,20.06,4.45,38.71,8.59,54.49-1.15,22.43-13.85,23.8-46.3,24.66-66.68Z"/>
  <text class="cls-1" transform="translate(215.79 171.29)"><tspan x="0" y="0">Almond</tspan></text>
</svg>